#!OML:ASF H:\GeneralSubjects\Female5\Project 1\Capture day 1\Session 1\Female5.ASF
:FULLY-SPECIFIED
:DEGREES
456
root 1.72188 16.0388 0.0876822 170.736 -67.1052 196.047
lowerback 17.3582 1.41433 -4.37834
upperback -6.57092 1.53713 5.20573
thorax -17.8779 1.60055 8.18657
lowerneck -16.8628 -3.03998 -3.145
upperneck 26.0787 -2.17359 -6.63429
head 11.2476 -2.38406 -2.26133
rclavicle -2.3879e-014 -3.26007e-014
rhumerus -42.0953 34.0889 -74.0808
rradius 53.5238
rwrist -26.1047
rhand -12.7574 -8.54269
rfingers 7.12502
rthumb 13.327 -38.0965
lclavicle -2.3879e-014 -3.26007e-014
lhumerus -43.048 -24.0636 98.7926
lradius 55.0802
lwrist -0.43785
lhand -21.0336 25.0361
lfingers 7.12502
lthumb 5.34194 54.9487
rfemur -34.4961 11.7686 24.5653
rtibia 25.4557
rfoot -15.8312 -25.1228
rtoes 43.5546
lfemur -49.3562 -13.8326 -17.604
ltibia 54.0384
lfoot 5.33095 8.95143
ltoes -71.1698
457
root 1.6352 16.0353 0.036953 173.391 -67.5139 194.709
lowerback 16.8592 1.48537 -4.25713
upperback -6.83347 1.64878 5.03763
thorax -17.8951 1.6259 7.87498
lowerneck -16.9737 -2.98252 -3.03862
upperneck 25.9591 -1.92572 -7.36331
head 11.2251 -2.35465 -2.51098
rclavicle -2.29845e-014 -1.19271e-014
rhumerus -42.7089 32.9013 -73.3663
rradius 52.6676
rwrist -26.168
rhand -13.1792 -8.95151
rfingers 7.12502
rthumb 12.9205 -38.5315
lclavicle -2.29845e-014 -1.19271e-014
lhumerus -43.4881 -22.9066 97.7068
lradius 54.9674
lwrist -0.931199
lhand -24.2206 24.207
lfingers 7.12502
lthumb 2.26428 54.1747
rfemur -34.5774 11.7852 24.2114
rtibia 23.0009
rfoot -15.6738 -26.1278
rtoes 45.3043
lfemur -48.1967 -13.7336 -18.7299
ltibia 49.0248
lfoot 5.83467 9.12437
ltoes -71.1962
458
root 1.53673 16.029 -0.0236329 176.17 -67.8791 193.321
lowerback 16.3098 1.52214 -4.20496
upperback -7.13956 1.70549 4.95947
thorax -17.9325 1.6431 7.73498
lowerneck -16.8814 -2.88586 -2.82644
upperneck 25.5364 -1.62585 -8.30773
head 11.0497 -2.30668 -2.83183
rclavicle -4.4447e-015 3.97569e-015
rhumerus -43.3764 32.0773 -72.7493
rradius 51.7938
rwrist -25.9147
rhand -14.4092 -9.14736
rfingers 7.12502
rthumb 11.7345 -38.7987
lclavicle -4.4447e-015 3.97569e-015
lhumerus -44.0287 -21.3447 96.4939
lradius 54.9403
lwrist -1.13702
lhand -25.112 24.1819
lfingers 7.12502
lthumb 1.40335 54.1571
rfemur -34.7185 11.7174 24.0127
rtibia 21.6921
rfoot -14.681 -25.2743
rtoes 44.7696
lfemur -47.0652 -13.5439 -19.9034
ltibia 44.2813
lfoot 6.87159 9.55775
ltoes -71.3411
459
root 1.42219 16.0227 -0.0930377 178.852 -68.2327 192.067
lowerback 15.675 1.50125 -4.03764
upperback -7.46098 1.71482 4.94239
thorax -17.9212 1.62651 7.61674
lowerneck -16.8871 -2.70234 -2.94592
upperneck 25.1588 -1.16334 -9.04588
head 10.9309 -2.19371 -3.00358
rclavicle -6.3052e-015 -3.4191e-014
rhumerus -43.98 31.3594 -72.1879
rradius 50.8274
rwrist -25.5053
rhand -15.3828 -9.9014
rfingers 7.12502
rthumb 10.7955 -39.604
lclavicle -6.3052e-015 -3.4191e-014
lhumerus -44.7363 -19.4464 95.0876
lradius 55.0824
lwrist -0.94115
lhand -24.9463 23.9131
lfingers 7.12502
lthumb 1.5634 53.8871
rfemur -34.9073 11.7161 23.8559
rtibia 21.2093
rfoot -14.8094 -23.0766
rtoes 41.9918
lfemur -45.8509 -13.4175 -21.0264
ltibia 39.8382
lfoot 5.75166 11.5442
ltoes -70.9005
460
root 1.28663 16.0194 -0.168939 181.859 -68.6417 190.411
lowerback 14.9764 1.434 -3.8781
upperback -7.77815 1.65369 4.90929
thorax -17.8476 1.57395 7.5041
lowerneck -16.7709 -2.5305 -3.25228
upperneck 24.6299 -0.691129 -9.80646
head 10.7414 -2.08872 -3.14134
rclavicle 2.44754e-015 -1.19271e-014
rhumerus -44.6029 30.6314 -71.6999
rradius 49.8329
rwrist -25.1133
rhand -15.8954 -10.2083
rfingers 7.12502
rthumb 10.301 -39.936
lclavicle 2.44754e-015 -1.19271e-014
lhumerus -45.5881 -17.4059 93.5769
lradius 55.0544
lwrist -0.860987
lhand -25.1587 23.3786
lfingers 7.12502
lthumb 1.35827 53.3541
rfemur -35.0913 11.757 23.3686
rtibia 20.4694
rfoot -15.0403 -21.3641
rtoes 39.6273
lfemur -44.3694 -13.1614 -22.6122
ltibia 35.7945
lfoot 4.7122 12.6143
ltoes -69.6403
461
root 1.13972 16.0211 -0.249456 185.043 -69.0521 188.546
lowerback 14.3089 1.33961 -3.72718
upperback -8.09174 1.54865 4.87048
thorax -17.7811 1.50155 7.40315
lowerneck -16.8693 -2.3593 -3.50542
upperneck 24.2818 -0.188805 -10.7154
head 10.668 -1.996 -3.35331
rclavicle -2.39784e-014 3.10104e-014
rhumerus -45.1907 29.8725 -71.3456
rradius 48.8332
rwrist -24.719
rhand -16.3756 -10.336
rfingers 7.12502
rthumb 9.83783 -40.0862
lclavicle -2.39784e-014 3.10104e-014
lhumerus -46.4436 -15.1653 91.865
lradius 54.7632
lwrist -0.747405
lhand -24.877 23.551
lfingers 7.12502
lthumb 1.63036 53.5245
rfemur -35.1424 12.0501 22.5439
rtibia 18.7169
rfoot -14.401 -21.4943
rtoes 37.4994
lfemur -42.8972 -12.8303 -24.3829
ltibia 32.3774
lfoot 3.69495 12.0879
ltoes -67.7361
